<svg xmlns="http://www.w3.org/2000/svg" width="512" height="768" viewBox="0 0 512 768">
  <rect width="512" height="768" rx="36" fill="#eef3ff"/>
  <circle cx="256" cy="220" r="110" fill="#ffe2ea"/>
  <path d="M138 640c22-118 78-176 118-176s96 58 118 176" fill="#c9d6ff"/>
  <path d="M154 215c30-70 67-103 102-103s72 33 102 103" fill="none" stroke="#31446b" stroke-width="24" stroke-linecap="round"/>
  <!-- glistening eyes -->
  <circle cx="220" cy="220" r="14" fill="#31446b"/>
  <circle cx="292" cy="220" r="14" fill="#31446b"/>
  <circle cx="226" cy="215" r="4" fill="#ffffff" opacity="0.8"/>
  <circle cx="298" cy="215" r="4" fill="#ffffff" opacity="0.8"/>
  <!-- tear tracks -->
  <path d="M230 232c0 12-2 28-4 40" fill="none" stroke="#8ac4ff" stroke-width="3" opacity="0.6"/>
  <path d="M285 232c0 12 2 28 4 40" fill="none" stroke="#8ac4ff" stroke-width="3" opacity="0.6"/>
  <!-- trembling smile -->
  <path d="M222 280c16 16 52 16 68 0" fill="none" stroke="#31446b" stroke-width="8" stroke-linecap="round" stroke-dasharray="6,4"/>
  <text x="256" y="700" text-anchor="middle" font-size="30" fill="#31446b" font-family="Arial, sans-serif">林澄 · 感动</text>
</svg>
