<svg xmlns="http://www.w3.org/2000/svg" width="512" height="768" viewBox="0 0 512 768">
  <rect width="512" height="768" rx="36" fill="#f0f0f8"/>
  <circle cx="256" cy="220" r="110" fill="#f0e8f4"/>
  <path d="M138 640c22-118 78-176 118-176s96 58 118 176" fill="#d4d0e8"/>
  <path d="M140 260c24-80 60-140 116-140s92 60 116 140" fill="none" stroke="#a0a0b8" stroke-width="20" stroke-linecap="round"/>
  <!-- crying eyes (squeezed shut) -->
  <path d="M208 218c6 6 18 6 24 0" fill="none" stroke="#4a4a6a" stroke-width="6" stroke-linecap="round"/>
  <path d="M280 218c6 6 18 6 24 0" fill="none" stroke="#4a4a6a" stroke-width="6" stroke-linecap="round"/>
  <!-- tear streams -->
  <path d="M218 224c-2 16-6 36-8 52" fill="none" stroke="#88c4ff" stroke-width="4" opacity="0.7"/>
  <path d="M294 224c2 16 6 36 8 52" fill="none" stroke="#88c4ff" stroke-width="4" opacity="0.7"/>
  <!-- trembling mouth -->
  <path d="M232 284c6 8 24 12 36 6" fill="none" stroke="#4a4a6a" stroke-width="7" stroke-linecap="round" stroke-dasharray="5,3"/>
  <text x="256" y="700" text-anchor="middle" font-size="30" fill="#4a4a6a" font-family="Arial, sans-serif">雪纪 · 哭泣</text>
</svg>
