<svg xmlns="http://www.w3.org/2000/svg" width="512" height="768" viewBox="0 0 512 768">
  <rect width="512" height="768" rx="36" fill="#f0f0f8"/>
  <circle cx="256" cy="220" r="110" fill="#f0e8f4"/>
  <path d="M138 640c22-118 78-176 118-176s96 58 118 176" fill="#d4d0e8"/>
  <path d="M140 260c24-80 60-140 116-140s92 60 116 140" fill="none" stroke="#a0a0b8" stroke-width="20" stroke-linecap="round"/>
  <!-- happy crescent eyes -->
  <path d="M206 220c8-10 20-10 28 0" fill="none" stroke="#4a4a6a" stroke-width="7" stroke-linecap="round"/>
  <path d="M278 220c8-10 20-10 28 0" fill="none" stroke="#4a4a6a" stroke-width="7" stroke-linecap="round"/>
  <!-- wide genuine smile -->
  <path d="M215 275c20 26 62 26 82 0" fill="none" stroke="#4a4a6a" stroke-width="9" stroke-linecap="round"/>
  <!-- gentle blush -->
  <ellipse cx="195" cy="248" rx="22" ry="10" fill="#e8a0c0" opacity="0.4"/>
  <ellipse cx="317" cy="248" rx="22" ry="10" fill="#e8a0c0" opacity="0.4"/>
  <text x="256" y="700" text-anchor="middle" font-size="30" fill="#4a4a6a" font-family="Arial, sans-serif">雪纪 · 笑</text>
</svg>
